<svg xmlns="http://www.w3.org/2000/svg" viewBox="0 0 64 64" width="64" height="64">
  <!-- Favicon « Dés Dispos » : statique, HORS thème (DESIGN.md, favicon-tile). Tuile #16151b, glyphe
       #f4efe6 (≈ 15,8:1), jamais currentColor : un favicon ne suit ni le thème ni le mode du
       navigateur. Seule couleur codée en dur de l'identité. Glyphe = logo-picto tel quel (d20 coché,
       même dessin que shared/brand/brand-logo.ts), réduit pour laisser une marge dans la tuile. -->
  <rect width="64" height="64" rx="13" fill="#16151b"/>
  <g transform="translate(6.4 6.4) scale(.8)">
    <path fill="none" stroke="#f4efe6" stroke-width="3.6" stroke-linecap="round" stroke-linejoin="round" d="M32 2.5 L57.55 17.25 V46.75 L32 61.5 L6.45 46.75 V17.25 Z"/>
    <path fill="none" stroke="#f4efe6" stroke-width="2.2" stroke-linecap="round" stroke-linejoin="round" d="M32 13 V2.5 M32 13 L57.55 17.25 M32 13 L6.45 17.25 M48.45 41.5 L57.55 17.25 M48.45 41.5 L57.55 46.75 M48.45 41.5 L32 61.5 M15.55 41.5 L32 61.5 M15.55 41.5 L6.45 46.75 M15.55 41.5 L6.45 17.25"/>
    <path fill="#f4efe6" fill-rule="evenodd" d="M32.87 12.5 L49.32 41 A1 1 0 0 1 48.45 42.5 L15.55 42.5 A1 1 0 0 1 14.68 41 L31.13 12.5 A1 1 0 0 1 32.87 12.5 Z M24.52 35.48 L29.02 39.98 A2.1 2.1 0 0 0 32.12 39.84 L39.82 30.54 A2.1 2.1 0 0 0 36.58 27.86 L30.35 35.38 L27.48 32.52 A2.1 2.1 0 0 0 24.52 35.48 Z"/>
  </g>
</svg>
